<svg width="25" height="25" viewBox="0 0 25 25" fill="none" xmlns="http://www.w3.org/2000/svg">
<g clip-path="url(#clip0_16658_18378)">
<path d="M20.9755 10.2106C20.2401 9.88733 19.3944 10.2745 19.0956 11.0709L17.3827 15.236H16.8324V3.90784C16.8324 3.04846 16.183 2.34534 15.3896 2.34534C14.5956 2.34534 13.9467 3.04846 13.9467 3.90784V11.3175L13.225 11.3297V1.56409C13.225 0.704712 12.5756 0.00158691 11.7821 0.00158691C10.9887 0.00158691 10.3393 0.704712 10.3393 1.56409V11.3175L9.61905 11.3297V3.12659C9.61905 2.26721 8.96964 1.56409 8.17618 1.56409C7.38223 1.56409 6.73331 2.26721 6.73331 3.12659V12.0988L6.01065 12.111V6.25159C6.01065 5.39221 5.36124 4.68909 4.56778 4.68909C3.77432 4.68909 3.12491 5.39221 3.12491 6.25159V16.7985C3.12491 20.4996 4.9379 25.0016 11.3769 25.0016C13.369 25.0016 15.2548 24.6598 16.2919 23.9762C16.9423 23.5475 17.5017 22.9948 17.9384 22.3497C18.2647 21.8684 18.5273 21.3468 18.7196 20.798L21.769 12.2462C22.0702 11.4498 21.7108 10.5343 20.9755 10.2106Z" fill="#E0AC08" fill-opacity="0.54"/>
</g>
<defs>
<clipPath id="clip0_16658_18378">
<rect width="25" height="25" fill="white"/>
</clipPath>
</defs>
</svg>
