<svg width="28" height="28" viewBox="0 0 28 28" fill="none" xmlns="http://www.w3.org/2000/svg">
<path d="M26.1952 24.4858L14.6797 3.09593C14.6423 3.02634 14.5867 2.96819 14.5188 2.92766C14.451 2.88713 14.3734 2.86572 14.2944 2.86572C14.2154 2.86572 14.1378 2.88713 14.07 2.92766C14.0022 2.96819 13.9466 3.02634 13.9091 3.09593L2.39141 24.4858C2.35555 24.5525 2.3376 24.6274 2.33932 24.703C2.34103 24.7787 2.36236 24.8527 2.40121 24.9176C2.44007 24.9826 2.49511 25.0364 2.56097 25.0737C2.62684 25.1111 2.70126 25.1307 2.77696 25.1306H25.8124C25.8879 25.1302 25.962 25.1102 26.0275 25.0727C26.0929 25.0352 26.1476 24.9814 26.1861 24.9165C26.2247 24.8516 26.2458 24.7778 26.2474 24.7024C26.2489 24.6269 26.231 24.5523 26.1952 24.4858ZM15.3879 22.5012H13.2004V20.3137H15.3879V22.5012ZM15.1691 19.0056H13.4191L13.091 10.2556H15.4973L15.1691 19.0056Z" fill="#FFCA22"/>
</svg>
